<?xml version="1.0" encoding="UTF-8" standalone="no"?>
<svg width="150px" height="22px" viewBox="0 0 150 22" version="1.1" xmlns="http://www.w3.org/2000/svg" xmlns:xlink="http://www.w3.org/1999/xlink">
    <!-- Generator: Sketch 3.6.1 (26313) - http://www.bohemiancoding.com/sketch -->
    <title>Group</title>
    <desc>Created with Sketch.</desc>
    <defs></defs>
    <g id="Welcome" stroke="none" stroke-width="1" fill="none" fill-rule="evenodd">
        <g id="Order" transform="translate(-891.000000, -1044.000000)">
            <g id="Group-Copy" transform="translate(375.000000, 319.000000)">
                <g id="Rectangle-106-Copy-+-YOUR-NAME-+-НАДПИСЬ-Copy-Copy-Copy-Copy-Copy-Copy" transform="translate(0.000000, 706.000000)">
                    <g id="Group" transform="translate(516.000000, 19.000000)">
                        <g id="Imported-Layers" transform="translate(0.000000, 5.500000)" fill="#CFCFCF">
                            <path d="M11.9202162,10.4235809 L13.6296644,0.18918815 L16.3635902,0.18918815 L14.6529892,10.4235809 L11.9202162,10.4235809" id="Fill-1"></path>
                            <path d="M24.5686339,0.441112266 C24.026998,0.233691476 23.1783263,0.011370894 22.1183032,0.011370894 C19.4170408,0.011370894 17.5139179,1.39940416 17.4977784,3.38872245 C17.4825995,4.85929272 18.8563833,5.67976154 19.8933499,6.16929813 C20.9574079,6.67098981 21.3153602,6.99074719 21.3101725,7.43872121 C21.3034477,8.12469979 20.4603479,8.43818358 19.6745052,8.43818358 C18.5802816,8.43818358 17.9990654,8.28310811 17.1012064,7.90100686 L16.748826,7.73828545 L16.3651273,10.0293245 C17.0037926,10.3149692 18.1846703,10.5625802 19.4105081,10.5755195 C22.2845022,10.5755195 24.1499661,9.20317027 24.1712934,7.07896965 C24.1816688,5.91462931 23.453083,5.02867983 21.8760177,4.29819792 C20.9203253,3.82473742 20.3350742,3.50890104 20.3412226,3.02936299 C20.3412226,2.60393472 20.8365533,2.14909896 21.9069518,2.14909896 C22.8009681,2.13498337 23.4484717,2.33377796 23.9530251,2.54119875 L24.1980005,2.65922079 L24.5686339,0.441112266" id="Fill-2"></path>
                            <path d="M31.5791582,0.198990644 L29.4666054,0.198990644 C28.8121848,0.198990644 28.322426,0.381120998 28.0349882,1.04769064 L23.9747366,10.4269137 L26.8456565,10.4269137 C26.8456565,10.4269137 27.3150486,9.16572474 27.4213007,8.88890229 C27.7350614,8.88890229 30.5237464,8.89321538 30.9224319,8.89321538 C31.0042826,9.25159459 31.2552143,10.4269137 31.2552143,10.4269137 L33.7920069,10.4269137 L31.5791582,0.198990644 M28.2081042,6.7954815 C28.434058,6.20576341 29.2973322,3.93472141 29.2973322,3.93472141 C29.2810005,3.9617763 29.5217489,3.34206258 29.6597037,2.95780478 L29.84454,3.84022536 C29.84454,3.84022536 30.368115,6.28320312 30.4774413,6.7954815 L28.2081042,6.7954815" id="Fill-3"></path>
                            <path d="M9.62724619,0.196638046 L6.9505774,7.1758183 L6.66544521,5.7573973 C6.16723243,4.12234116 4.61476069,2.35103035 2.87898968,1.46429667 L5.32643833,10.4147586 L8.21906978,10.4114258 L12.523144,0.196638046 L9.62724619,0.196638046" id="Fill-4"></path>
                            <path d="M4.46758329,0.190364449 L0.0591783784,0.190364449 L0.0242093366,0.403274636 C3.45405749,1.25040624 5.72339459,3.29755925 6.66544521,5.7573973 L5.70687076,1.05435634 C5.54124816,0.406215385 5.06128845,0.212910187 4.46758329,0.190364449" id="Fill-5"></path>
                        </g>
                        <g id="Imported-Layers" transform="translate(41.000000, 0.500000)">
                            <path d="M21.5037977,18.8933982 L21.9752112,18.8806195 L22.4404262,18.8458142 L22.8963435,18.7856195 L23.3491614,18.7028938 L23.7897455,18.5981416 L24.2241311,18.4710265 L24.6492188,18.321885 L25.065172,18.1535752 L25.4718273,17.9630708 L25.8660856,17.7565929 L26.24811,17.5279204 L26.6208366,17.2834425 L26.9782301,17.0199646 L27.3232265,16.7403451 L27.655989,16.4450885 L27.9734183,16.1308319 L28.2782875,15.8036283 L28.5647242,15.4606195 L28.8358278,15.105 L29.0915982,14.7366018 L29.328773,14.3523982 L29.5506147,13.9586106 L29.7509247,13.5522124 L29.9357383,13.1330354 L30.0990203,12.7042743 L30.2438699,12.2660973 L30.3670246,11.8183363 L30.4686477,11.3641858 L30.5487391,10.8974248 L30.6072987,10.427469 L30.6412275,9.9479292 L30.6534614,9.46216814 L30.6412275,8.97943363 L30.6072987,8.5030885 L30.5487391,8.03313274 L30.4686477,7.57259292 L30.3670246,7.11844248 L30.2438699,6.67387611 L30.0990203,6.23569912 L29.9357383,5.81013274 L29.7509247,5.39415044 L29.5506147,4.98775221 L29.328773,4.59715929 L29.0915982,4.21295575 L28.8358278,3.84455752 L28.5647242,3.4919646 L28.2782875,3.14912389 L27.9734183,2.82192035 L27.655989,2.51069027 L27.3232265,2.21543363 L26.9782301,1.9359823 L26.6208366,1.67250442 L26.24811,1.42785841 L25.8660856,1.20238053 L25.4718273,0.996070796 L25.065172,0.805566372 L24.6492188,0.637256637 L24.2241311,0.487946903 L23.7897455,0.360831858 L23.3491614,0.256079646 L22.8963435,0.173522124 L22.4404262,0.113159292 L21.9752112,0.0783539823 L21.5037977,0.0655752212 L21.0354834,0.0783539823 L20.5704315,0.113159292 L20.1143511,0.173522124 L19.6646324,0.256079646 L19.2240483,0.360831858 L18.7896628,0.487946903 L18.3676742,0.637256637 L17.9517211,0.805566372 L17.548165,0.996070796 L17.157006,1.20238053 L16.7749816,1.42785841 L16.4053542,1.67250442 L16.0479608,1.9359823 L15.7028012,2.21543363 L15.3733011,2.51069027 L15.0558718,2.82192035 L14.7539388,3.14912389 L14.467502,3.4919646 L14.1963985,3.84455752 L13.9438905,4.21295575 L13.7065525,4.59715929 L13.4878101,4.98775221 L13.284564,5.39415044 L13.1028496,5.81013274 L12.9394044,6.23569912 L12.7978173,6.67387611 L12.6744994,7.11844248 L12.5728763,7.57259292 L12.492785,8.03313274 L12.4342253,8.5030885 L12.4004597,8.97943363 L12.3880627,9.46216814 L12.4004597,9.9479292 L12.4342253,10.427469 L12.492785,10.8974248 L12.5728763,11.3641858 L12.6744994,11.8183363 L12.7978173,12.2660973 L12.9394044,12.7042743 L13.1028496,13.1330354 L13.284564,13.5522124 L13.4878101,13.9586106 L13.7065525,14.3523982 L13.9438905,14.7366018 L14.1963985,15.105 L14.467502,15.4606195 L14.7539388,15.8036283 L15.0558718,16.1308319 L15.3733011,16.4450885 L15.7028012,16.7403451 L16.0479608,17.0199646 L16.4053542,17.2834425 L16.7749816,17.5279204 L17.157006,17.7565929 L17.548165,17.9630708 L17.9517211,18.1535752 L18.3676742,18.321885 L18.7896628,18.4710265 L19.2240483,18.5981416 L19.6646324,18.7028938 L20.1143511,18.7856195 L20.5704315,18.8458142 L21.0354834,18.8806195 L21.5037977,18.8933982" id="Fill-1" fill="#CFCFCF"></path>
                            <path d="M9.28570486,18.8933982 L9.75401913,18.8806195 L10.2192342,18.8458142 L10.6751514,18.7856195 L11.1248701,18.7028938 L11.5654542,18.5981416 L11.9998398,18.4710265 L12.4219914,18.321885 L12.8377814,18.1535752 L13.2415006,17.9630708 L13.6326597,17.7565929 L14.014684,17.5279204 L14.3843114,17.2834425 L14.7417049,17.0199646 L15.0867013,16.7403451 L15.4163645,16.4450885 L15.7336307,16.1308319 L16.0355637,15.8036283 L16.3221636,15.4606195 L16.593104,15.105 L16.8457752,14.7366018 L17.0831131,14.3523982 L17.3016924,13.9586106 L17.5051017,13.5522124 L17.6868161,13.1330354 L17.8500981,12.7042743 L17.9918484,12.2660973 L18.1150031,11.8183363 L18.2166262,11.3641858 L18.2967175,10.8974248 L18.3552772,10.427469 L18.3892059,9.9479292 L18.401603,9.46216814 L18.3892059,8.97943363 L18.3552772,8.5030885 L18.2967175,8.03313274 L18.2166262,7.57259292 L18.1150031,7.11844248 L17.9918484,6.67387611 L17.8500981,6.23569912 L17.6868161,5.81013274 L17.5051017,5.39415044 L17.3016924,4.98775221 L17.0831131,4.59715929 L16.8457752,4.21295575 L16.593104,3.84455752 L16.3221636,3.4919646 L16.0355637,3.14912389 L15.7336307,2.82192035 L15.4163645,2.51069027 L15.0867013,2.21543363 L14.7417049,1.9359823 L14.3843114,1.67250442 L14.014684,1.42785841 L13.6326597,1.20238053 L13.2415006,0.996070796 L12.8377814,0.805566372 L12.4219914,0.637256637 L11.9998398,0.487946903 L11.5654542,0.360831858 L11.1248701,0.256079646 L10.6751514,0.173522124 L10.2192342,0.113159292 L9.75401913,0.0783539823 L9.28570486,0.0655752212 L8.81445444,0.0783539823 L8.34923942,0.113159292 L7.89332217,0.173522124 L7.44050419,0.256079646 L6.99992011,0.360831858 L6.56553456,0.487946903 L6.14044678,0.637256637 L5.72449366,0.805566372 L5.31783832,0.996070796 L4.92341689,1.20238053 L4.54155561,1.42785841 L4.16866587,1.67250442 L3.81143554,1.9359823 L3.46627601,2.21543363 L3.13367663,2.51069027 L2.81624731,2.82192035 L2.51137814,3.14912389 L2.22477828,3.4919646 L1.95367472,3.84455752 L1.69806745,4.21295575 L1.46072949,4.59715929 L1.23905094,4.98775221 L1.03874097,5.39415044 L0.85392729,5.81013274 L0.6906453,6.23569912 L0.545795743,6.67387611 L0.422640995,7.11844248 L0.321017938,7.57259292 L0.240763454,8.03313274 L0.182366898,8.5030885 L0.148438173,8.97943363 L0.136204257,9.46216814 L0.148438173,9.9479292 L0.182366898,10.427469 L0.240763454,10.8974248 L0.321017938,11.3641858 L0.422640995,11.8183363 L0.545795743,12.2660973 L0.6906453,12.7042743 L0.85392729,13.1330354 L1.03874097,13.5522124 L1.23905094,13.9586106 L1.46072949,14.3523982 L1.69806745,14.7366018 L1.95367472,15.105 L2.22477828,15.4606195 L2.51137814,15.8036283 L2.81624731,16.1308319 L3.13367663,16.4450885 L3.46627601,16.7403451 L3.81143554,17.0199646 L4.16866587,17.2834425 L4.54155561,17.5279204 L4.92341689,17.7565929 L5.31783832,17.9630708 L5.72449366,18.1535752 L6.14044678,18.321885 L6.56553456,18.4710265 L6.99992011,18.5981416 L7.44050419,18.7028938 L7.89332217,18.7856195 L8.34923942,18.8458142 L8.81445444,18.8806195 L9.28570486,18.8933982" id="Fill-2" fill="#CFCFCF"></path>
                            <path d="M14.3257517,3.67624779 L19.1778857,3.67624779 L19.1778857,3.1649292 L14.7448041,3.1649292 L14.3257517,3.67624779" id="Fill-3" fill="#CFCFCF"></path>
                            <path d="M13.5987309,4.8130531 L19.1778857,4.8130531 L19.1778857,4.30173451 L13.8913662,4.30173451 L13.5987309,4.8130531" id="Fill-4" fill="#CFCFCF"></path>
                            <path d="M13.0565238,5.94666372 L19.1778857,5.94666372 L19.1778857,5.43534513 L13.2723301,5.43534513 L13.0565238,5.94666372" id="Fill-5" fill="#CFCFCF"></path>
                            <path d="M12.6837972,7.08346903 L19.1778857,7.08346903 L19.1778857,6.57231858 L12.8377814,6.57231858 L12.6837972,7.08346903" id="Fill-6" fill="#CFCFCF"></path>
                            <path d="M12.8994403,12.5773274 L19.193382,12.5773274 L19.193382,12.0660088 L12.7454561,12.0660088 L12.8994403,12.5773274" id="Fill-7" fill="#CFCFCF"></path>
                            <path d="M13.3646553,13.7141327 L19.193382,13.7141327 L19.193382,13.2028142 L13.1335159,13.2028142 L13.3646553,13.7141327" id="Fill-8" fill="#CFCFCF"></path>
                            <path d="M14.0177833,14.8477434 L19.193382,14.8477434 L19.193382,14.3365929 L13.7065525,14.3365929 L14.0177833,14.8477434" id="Fill-9" fill="#CFCFCF"></path>
                            <path d="M14.9173839,15.9847168 L19.193382,15.9847168 L19.193382,15.4702035 L14.4828352,15.4702035 L14.9173839,15.9847168" id="Fill-10" fill="#CFCFCF"></path>
                            <path d="M12.4650548,8.21724779 L19.1778857,8.21724779 L19.1778857,7.7059292 L12.5604793,7.7059292 L12.4650548,8.21724779" id="Fill-11" fill="#CFCFCF"></path>
                            <path d="M16.5562392,11.4435487 L19.1162267,11.4435487 L19.1162267,10.9323982 L16.6485645,10.9323982 L16.5562392,11.4435487" id="Fill-12" fill="#CFCFCF"></path>
                            <path d="M16.7594853,10.3099381 L19.1162267,10.3099381 L19.1162267,9.79542478 L16.8519737,9.79542478 L16.7594853,10.3099381" id="Fill-13" fill="#CFCFCF"></path>
                            <path d="M12.2955743,9.79542478 L12.9610993,9.79542478 L12.9610993,10.3099381 L12.3264037,10.3099381 L12.2955743,9.79542478" id="Fill-14" fill="#CFCFCF"></path>
                            <path d="M11.0540765,9.17632743 L11.0110132,9.17313274 L10.9677867,9.16674336 L10.9278225,9.16035398 L10.8876953,9.15413274 L10.8508304,9.14774336 L10.8107032,9.14135398 L10.7707391,9.1349646 L10.7275126,9.12857522 L10.6844492,9.12235398 L10.6351873,9.11915929 L10.5797269,9.1159646 L10.5211672,9.11276991 L10.456409,9.11276991 L10.3856154,9.1159646 L10.305524,9.12235398 L10.2161349,9.12857522 L10.154476,9.13815929 L10.0959163,9.14774336 L10.0437182,9.16674336 L9.99739249,9.18574336 L9.95432911,9.20793805 L9.91420187,9.23349558 L9.8833724,9.26510619 L9.85564219,9.29369027 L9.83720976,9.32866372 L9.82171347,9.36363717 L9.81567807,9.40180531 L9.81567807,9.43980531 L9.82497584,9.48116814 L9.83720976,9.52236283 L9.86184071,9.56372566 L9.89267017,9.60492035 L9.95432911,9.66528319 L10.028222,9.71286726 L10.1145118,9.75423009 L10.2070002,9.78920354 L10.305524,9.82081416 L10.4071471,9.85578761 L10.5087702,9.89395575 L10.6074571,9.93531858 L10.6997823,9.98912389 L10.7860722,10.0558761 L10.8630643,10.1352389 L10.9278225,10.2337699 L10.9770844,10.3543274 L11.0079139,10.4972478 L11.0201478,10.6687522 L11.0079139,10.8688407 L10.9863822,11.0181504 L10.9493542,11.148292 L10.9000923,11.2690177 L10.8384334,11.3737699 L10.7676398,11.4659115 L10.6875484,11.5452743 L10.6012586,11.6150531 L10.5056709,11.6754159 L10.4071471,11.723 L10.305524,11.7643628 L10.2008017,11.7961416 L10.0929801,11.821531 L9.98825783,11.840531 L9.88647166,11.850115 L9.7848486,11.8565044 L9.68926094,11.859531 L9.55697154,11.859531 L9.43365367,11.8565044 L9.3258321,11.8565044 L9.22420904,11.8531416 L9.13172064,11.850115 L9.04853002,11.8437257 L8.97463717,11.8373363 L8.90384358,11.8279204 L8.83908539,11.821531 L8.78052571,11.8087522 L8.72196604,11.7991681 L8.66960488,11.7833628 L8.61724372,11.7707522 L8.56798182,11.7515841 L8.51871992,11.7325841 L8.46635877,11.7135841 L8.60500981,11.0117611 L8.63274001,11.0181504 L8.66666874,11.0275664 L8.70973212,11.0403451 L8.76209328,11.0529558 L8.8175537,11.0657345 L8.87921263,11.0783451 L8.94690696,11.0941504 L9.02079981,11.1069292 L9.09779192,11.119708 L9.17788328,11.1324867 L9.26107391,11.1419027 L9.34736379,11.1514867 L9.43675293,11.1546814 L9.52614207,11.1578761 L9.61536809,11.1578761 L9.70475724,11.1546814 L9.79414638,11.1355133 L9.86493997,11.1101239 L9.92040038,11.0753186 L9.96346376,11.0307611 L9.99429323,10.9863717 L10.0190873,10.9355929 L10.0344205,10.884646 L10.0466544,10.8370619 L10.0528529,10.7449204 L10.0251227,10.6655575 L9.97276154,10.602 L9.89576943,10.5481947 L9.80328103,10.5004425 L9.69545946,10.4528584 L9.57540397,10.4083009 L9.45518536,10.3575221 L9.33203061,10.300354 L9.21491127,10.2337699 L9.10708969,10.1512124 L9.00856589,10.0526814 L8.93141067,9.93195575 L8.87611337,9.78920354 L8.84838316,9.61769912 L8.85148242,9.41441593 L8.86681559,9.29066372 L8.88834729,9.17313274 L8.91917675,9.06518584 L8.95604162,8.96346018 L9.00546663,8.86829204 L9.06092705,8.78573451 L9.12552212,8.70637168 L9.20267735,8.63642478 L9.29190337,8.57606195 L9.39059029,8.52528319 L9.501348,8.47753097 L9.62466587,8.44272566 L9.76331691,8.41414159 L9.91420187,8.3919469 L10.0805831,8.37916814 L10.2622975,8.37597345 L10.3763176,8.37597345 L10.4810399,8.37916814 L10.5766276,8.38236283 L10.6629175,8.38555752 L10.7399096,8.3919469 L10.8107032,8.39833628 L10.8723621,8.40455752 L10.9278225,8.4109469 L10.9801837,8.41733628 L11.0232471,8.42675221 L11.0633743,8.43314159 L11.1002392,8.43953097 L11.1310686,8.44592035 L11.158962,8.44911504 L11.1865291,8.45550442 L11.21116,8.45869912 L11.0540765,9.17632743" id="Fill-15" fill="#FFFFFF"></path>
                            <path d="M11.0540765,9.17632743 L11.0540765,9.17632743 L11.0110132,9.17313274 L10.9677867,9.16674336 L10.9278225,9.16035398 L10.8876953,9.15413274 L10.8508304,9.14774336 L10.8107032,9.14135398 L10.7707391,9.1349646 L10.7275126,9.12857522 L10.6844492,9.12235398 L10.6351873,9.11915929 L10.5797269,9.1159646 L10.5211672,9.11276991 L10.456409,9.11276991 L10.3856154,9.1159646 L10.305524,9.12235398 L10.2161349,9.12857522 L10.154476,9.13815929 L10.0959163,9.14774336 L10.0437182,9.16674336 L9.99739249,9.18574336 L9.95432911,9.20793805 L9.91420187,9.23349558 L9.8833724,9.26510619 L9.85564219,9.29369027 L9.83720976,9.32866372 L9.82171347,9.36363717 L9.81567807,9.40180531 L9.81567807,9.43980531 L9.82497584,9.48116814 L9.83720976,9.52236283 L9.86184071,9.56372566 L9.89267017,9.60492035 L9.95432911,9.66528319 L10.028222,9.71286726 L10.1145118,9.75423009 L10.2070002,9.78920354 L10.305524,9.82081416 L10.4071471,9.85578761 L10.5087702,9.89395575 L10.6074571,9.93531858 L10.6997823,9.98912389 L10.7860722,10.0558761 L10.8630643,10.1352389 L10.9278225,10.2337699 L10.9770844,10.3543274 L11.0079139,10.4972478 L11.0201478,10.6687522 L11.0079139,10.8688407 L10.9863822,11.0181504 L10.9493542,11.148292 L10.9000923,11.2690177 L10.8384334,11.3737699 L10.7676398,11.4659115 L10.6875484,11.5452743 L10.6012586,11.6150531 L10.5056709,11.6754159 L10.4071471,11.723 L10.305524,11.7643628 L10.2008017,11.7961416 L10.0929801,11.821531 L9.98825783,11.840531 L9.88647166,11.850115 L9.7848486,11.8565044 L9.68926094,11.859531 L9.55697154,11.859531 L9.43365367,11.8565044 L9.3258321,11.8565044 L9.22420904,11.8531416 L9.13172064,11.850115 L9.04853002,11.8437257 L8.97463717,11.8373363 L8.90384358,11.8279204 L8.83908539,11.821531 L8.78052571,11.8087522 L8.72196604,11.7991681 L8.66960488,11.7833628 L8.61724372,11.7707522 L8.56798182,11.7515841 L8.51871992,11.7325841 L8.46635877,11.7135841 L8.60500981,11.0117611 L8.63274001,11.0181504 L8.66666874,11.0275664 L8.70973212,11.0403451 L8.76209328,11.0529558 L8.8175537,11.0657345 L8.87921263,11.0783451 L8.94690696,11.0941504 L9.02079981,11.1069292 L9.09779192,11.119708 L9.17788328,11.1324867 L9.26107391,11.1419027 L9.34736379,11.1514867 L9.43675293,11.1546814 L9.52614207,11.1578761 L9.61536809,11.1578761 L9.70475724,11.1546814 L9.79414638,11.1355133 L9.86493997,11.1101239 L9.92040038,11.0753186 L9.96346376,11.0307611 L9.99429323,10.9863717 L10.0190873,10.9355929 L10.0344205,10.884646 L10.0466544,10.8370619 L10.0528529,10.7449204 L10.0251227,10.6655575 L9.97276154,10.602 L9.89576943,10.5481947 L9.80328103,10.5004425 L9.69545946,10.4528584 L9.57540397,10.4083009 L9.45518536,10.3575221 L9.33203061,10.300354 L9.21491127,10.2337699 L9.10708969,10.1512124 L9.00856589,10.0526814 L8.93141067,9.93195575 L8.87611337,9.78920354 L8.84838316,9.61769912 L8.85148242,9.41441593 L8.86681559,9.29066372 L8.88834729,9.17313274 L8.91917675,9.06518584 L8.95604162,8.96346018 L9.00546663,8.86829204 L9.06092705,8.78573451 L9.12552212,8.70637168 L9.20267735,8.63642478 L9.29190337,8.57606195 L9.39059029,8.52528319 L9.501348,8.47753097 L9.62466587,8.44272566 L9.76331691,8.41414159 L9.91420187,8.3919469 L10.0805831,8.37916814 L10.2622975,8.37597345 L10.3763176,8.37597345 L10.4810399,8.37916814 L10.5766276,8.38236283 L10.6629175,8.38555752 L10.7399096,8.3919469 L10.8107032,8.39833628 L10.8723621,8.40455752 L10.9278225,8.4109469 L10.9801837,8.41733628 L11.0232471,8.42675221 L11.0633743,8.43314159 L11.1002392,8.43953097 L11.1310686,8.44592035 L11.158962,8.44911504 L11.1865291,8.45550442 L11.21116,8.45869912 L11.0540765,9.17632743" id="Stroke-16" stroke="#FFFFFF" stroke-width="0.216"></path>
                            <path d="M11.7841966,7.67431858 L12.6376345,7.67431858 L12.5112174,8.44272566 L13.0256943,8.44272566 L12.9147735,9.16035398 L12.3725664,9.14454867 L12.0768319,10.9164248 L12.0737326,10.9799823 L12.0892289,11.0339558 L12.1200584,11.0753186 L12.1600225,11.1101239 L12.2154829,11.1324867 L12.2771418,11.1514867 L12.3448362,11.1640973 L12.4188921,11.1704867 L12.4865865,11.167292 L12.5482454,11.1609027 L12.6037058,11.1514867 L12.6529677,11.138708 L12.693095,11.1260973 L12.7208252,11.1165133 L12.7392576,11.1101239 L12.7454561,11.1069292 L12.6376345,11.6976106 L12.6161028,11.7135841 L12.594408,11.7261947 L12.5728763,11.7389735 L12.5513447,11.7515841 L12.529813,11.7611681 L12.505182,11.7707522 L12.4774518,11.7801681 L12.4497216,11.7897522 L12.4188921,11.7991681 L12.3880627,11.8055575 L12.3510347,11.8119469 L12.3141698,11.8183363 L12.2740426,11.8247257 L12.2278799,11.8309469 L12.178618,11.8373363 L12.1262569,11.8437257 L11.8920182,11.8437257 L11.7688634,11.8341416 L11.6610419,11.821531 L11.5623549,11.802531 L11.4793274,11.7801681 L11.4083707,11.7515841 L11.3499742,11.7199735 L11.2974499,11.6818053 L11.2573227,11.6404425 L11.2266563,11.5960531 L11.2051246,11.5420796 L11.1896283,11.4881062 L11.1804937,11.4277434 L11.1773944,11.3609912 L11.1773944,11.2912124 L11.1865291,11.2182389 L11.1958268,11.138708 L11.7841966,7.67431858" id="Fill-17" fill="#FFFFFF"></path>
                            <path d="M11.7841966,7.67431858 L12.6376345,7.67431858 L12.5112174,8.44272566 L13.0256943,8.44272566 L12.9147735,9.16035398 L12.3725664,9.14454867 L12.0768319,10.9164248 L12.0737326,10.9799823 L12.0892289,11.0339558 L12.1200584,11.0753186 L12.1600225,11.1101239 L12.2154829,11.1324867 L12.2771418,11.1514867 L12.3448362,11.1640973 L12.4188921,11.1704867 L12.4865865,11.167292 L12.5482454,11.1609027 L12.6037058,11.1514867 L12.6529677,11.138708 L12.693095,11.1260973 L12.7208252,11.1165133 L12.7392576,11.1101239 L12.7454561,11.1069292 L12.6376345,11.6976106 L12.6161028,11.7135841 L12.594408,11.7261947 L12.5728763,11.7389735 L12.5513447,11.7515841 L12.529813,11.7611681 L12.505182,11.7707522 L12.4774518,11.7801681 L12.4497216,11.7897522 L12.4188921,11.7991681 L12.3880627,11.8055575 L12.3510347,11.8119469 L12.3141698,11.8183363 L12.2740426,11.8247257 L12.2278799,11.8309469 L12.178618,11.8373363 L12.1262569,11.8437257 L11.8920182,11.8437257 L11.7688634,11.8341416 L11.6610419,11.821531 L11.5623549,11.802531 L11.4793274,11.7801681 L11.4083707,11.7515841 L11.3499742,11.7199735 L11.2974499,11.6818053 L11.2573227,11.6404425 L11.2266563,11.5960531 L11.2051246,11.5420796 L11.1896283,11.4881062 L11.1804937,11.4277434 L11.1773944,11.3609912 L11.1773944,11.2912124 L11.1865291,11.2182389 L11.1958268,11.138708 L11.7841966,7.67431858" id="Stroke-18" stroke="#FFFFFF" stroke-width="0.216"></path>
                            <path d="M13.7065525,10.3575221 L13.6972547,10.4114956 L13.6943186,10.4686637 L13.700354,10.5290265 L13.712751,10.5893894 L13.7342827,10.6497522 L13.7589137,10.7069204 L13.7928424,10.7672832 L13.8298704,10.8212566 L13.8729337,10.8752301 L13.9192595,10.9228142 L13.9685214,10.9703982 L14.0239818,11.0085664 L14.0792791,11.0435398 L14.1409381,11.0721239 L14.202597,11.0941504 L14.2642559,11.1069292 L14.3443473,11.119708 L14.4213394,11.129292 L14.5014308,11.138708 L14.5815221,11.1450973 L14.6616135,11.148292 L14.7448041,11.148292 L14.8248955,11.1450973 L14.9080861,11.138708 L14.9912767,11.1260973 L15.0744674,11.1101239 L15.1605941,11.0911239 L15.2439479,11.0625398 L15.3300746,11.0275664 L15.4194638,10.9895664 L15.5057536,10.9387876 L15.5949797,10.884646 L15.4718249,11.6658319 L15.3733011,11.7167788 L15.3238761,11.7357788 L15.2777135,11.7547788 L15.2315508,11.7707522 L15.1822889,11.7865575 L15.133027,11.7991681 L15.0806659,11.8087522 L15.0250423,11.8183363 L14.9635465,11.8247257 L14.8987883,11.8309469 L14.8279947,11.8373363 L14.7479034,11.840531 L14.6647127,11.840531 L14.5691251,11.8437257 L14.467502,11.8437257 L14.3166171,11.840531 L14.1624697,11.8247257 L14.0084855,11.802531 L13.8545013,11.7643628 L13.7034532,11.7167788 L13.5587668,11.6562478 L13.4201158,11.5770531 L13.2907625,11.4849115 L13.1705439,11.3769646 L13.0658216,11.2466549 L12.9764324,11.100708 L12.9025396,10.9323982 L12.8501784,10.7449204 L12.8162497,10.5322212 L12.8069519,10.2971593 L12.8224482,10.0368761 L12.8346821,9.93531858 L12.8532777,9.81778761 L12.8779086,9.69386726 L12.9118374,9.56053097 L12.958,9.424 L13.0134604,9.28746903 L13.0844171,9.14774336 L13.1705439,9.01423894 L13.2690677,8.88729204 L13.3892863,8.76656637 L13.5248381,8.65861947 L13.6788223,8.56345133 L13.8576006,8.48392035 L14.0577474,8.42675221 L14.2795891,8.38875221 L14.529161,8.37597345 L14.6492165,8.37916814 L14.7756336,8.3919469 L14.9018876,8.41414159 L15.0281416,8.44592035 L15.1514595,8.49350442 L15.2716781,8.55067257 L15.3824358,8.62684071 L15.484222,8.71578761 L15.5765472,8.82373451 L15.6535393,8.95084956 L15.7151983,9.0969646 L15.7582617,9.26510619 L15.7828926,9.45577876 L15.7859919,9.67167257 L15.7644602,9.91295575 L15.7182975,10.1797965 L15.7028012,10.3734956 L13.7037795,10.3734956 L13.80736,9.74784071 L14.9480502,9.74784071 L14.9542487,9.66847788 L14.9511495,9.59230973 L14.944951,9.52236283 L14.9327171,9.45880531 L14.9111854,9.39861062 L14.8894906,9.34463717 L14.8588242,9.29688496 L14.8279947,9.25249558 L14.7909668,9.21432743 L14.7510026,9.18254867 L14.7046769,9.15413274 L14.6585142,9.12857522 L14.6092523,9.10957522 L14.5599904,9.0969646 L14.5076293,9.08738053 L14.4521689,9.08099115 L14.3936092,9.08418584 L14.3381488,9.09376991 L14.2857876,9.10638053 L14.2334265,9.12538053 L14.1810653,9.15093805 L14.1347395,9.17952212 L14.0885769,9.21432743 L14.0486128,9.25249558 L14.0084855,9.29688496 L13.9714575,9.34463717 L13.9375288,9.39541593 L13.9099617,9.44938938 L13.8822315,9.50655752 L13.8606998,9.57011504 L13.8421043,9.63350442 L13.8298704,9.70025664 L13.7065525,10.3575221" id="Fill-19" fill="#FFFFFF"></path>
                            <path d="M13.7065525,10.3575221 L13.7065525,10.3575221 L13.6972547,10.4114956 L13.6943186,10.4686637 L13.700354,10.5290265 L13.712751,10.5893894 L13.7342827,10.6497522 L13.7589137,10.7069204 L13.7928424,10.7672832 L13.8298704,10.8212566 L13.8729337,10.8752301 L13.9192595,10.9228142 L13.9685214,10.9703982 L14.0239818,11.0085664 L14.0792791,11.0435398 L14.1409381,11.0721239 L14.202597,11.0941504 L14.2642559,11.1069292 L14.3443473,11.119708 L14.4213394,11.129292 L14.5014308,11.138708 L14.5815221,11.1450973 L14.6616135,11.148292 L14.7448041,11.148292 L14.8248955,11.1450973 L14.9080861,11.138708 L14.9912767,11.1260973 L15.0744674,11.1101239 L15.1605941,11.0911239 L15.2439479,11.0625398 L15.3300746,11.0275664 L15.4194638,10.9895664 L15.5057536,10.9387876 L15.5949797,10.884646 L15.4718249,11.6658319 L15.3733011,11.7167788 L15.3238761,11.7357788 L15.2777135,11.7547788 L15.2315508,11.7707522 L15.1822889,11.7865575 L15.133027,11.7991681 L15.0806659,11.8087522 L15.0250423,11.8183363 L14.9635465,11.8247257 L14.8987883,11.8309469 L14.8279947,11.8373363 L14.7479034,11.840531 L14.6647127,11.840531 L14.5691251,11.8437257 L14.467502,11.8437257 L14.3166171,11.840531 L14.1624697,11.8247257 L14.0084855,11.802531 L13.8545013,11.7643628 L13.7034532,11.7167788 L13.5587668,11.6562478 L13.4201158,11.5770531 L13.2907625,11.4849115 L13.1705439,11.3769646 L13.0658216,11.2466549 L12.9764324,11.100708 L12.9025396,10.9323982 L12.8501784,10.7449204 L12.8162497,10.5322212 L12.8069519,10.2971593 L12.8224482,10.0368761 L12.8346821,9.93531858 L12.8532777,9.81778761 L12.8779086,9.69386726 L12.9118374,9.56053097 L12.958,9.424 L13.0134604,9.28746903 L13.0844171,9.14774336 L13.1705439,9.01423894 L13.2690677,8.88729204 L13.3892863,8.76656637 L13.5248381,8.65861947 L13.6788223,8.56345133 L13.8576006,8.48392035 L14.0577474,8.42675221 L14.2795891,8.38875221 L14.529161,8.37597345 L14.6492165,8.37916814 L14.7756336,8.3919469 L14.9018876,8.41414159 L15.0281416,8.44592035 L15.1514595,8.49350442 L15.2716781,8.55067257 L15.3824358,8.62684071 L15.484222,8.71578761 L15.5765472,8.82373451 L15.6535393,8.95084956 L15.7151983,9.0969646 L15.7582617,9.26510619 L15.7828926,9.45577876 L15.7859919,9.67167257 L15.7644602,9.91295575 L15.7182975,10.1797965 L15.7028012,10.3734956 L13.7037795,10.3734956 L13.80736,9.74784071 L14.9480502,9.74784071 L14.9542487,9.66847788 L14.9511495,9.59230973 L14.944951,9.52236283 L14.9327171,9.45880531 L14.9111854,9.39861062 L14.8894906,9.34463717 L14.8588242,9.29688496 L14.8279947,9.25249558 L14.7909668,9.21432743 L14.7510026,9.18254867 L14.7046769,9.15413274 L14.6585142,9.12857522 L14.6092523,9.10957522 L14.5599904,9.0969646 L14.5076293,9.08738053 L14.4521689,9.08099115 L14.3936092,9.08418584 L14.3381488,9.09376991 L14.2857876,9.10638053 L14.2334265,9.12538053 L14.1810653,9.15093805 L14.1347395,9.17952212 L14.0885769,9.21432743 L14.0486128,9.25249558 L14.0084855,9.29688496 L13.9714575,9.34463717 L13.9375288,9.39541593 L13.9099617,9.44938938 L13.8822315,9.50655752 L13.8606998,9.57011504 L13.8421043,9.63350442 L13.8298704,9.70025664 L13.7065525,10.3575221" id="Stroke-20" stroke="#FFFFFF" stroke-width="0.216"></path>
                            <path d="M21.0540789,8.63323009 L21.0139517,8.6110354 L20.9739876,8.5920354 L20.9307611,8.56967257 L20.8845984,8.54747788 L20.8384358,8.52847788 L20.7860746,8.50947788 L20.7337135,8.49030973 L20.678253,8.47130973 L20.6196934,8.45550442 L20.5611337,8.44272566 L20.4965386,8.4299469 L20.4317804,8.42053097 L20.3608237,8.41414159 L20.2900301,8.40775221 L20.06199,8.40775221 L19.9818986,8.41414159 L19.898708,8.42372566 L19.8125812,8.43953097 L19.7262913,8.46492035 L19.6400014,8.49989381 L19.5537116,8.54428319 L19.4674217,8.60145133 L19.3843942,8.67139823 L19.3041397,8.75395575 L19.2271476,8.85551327 L19.1532547,8.97304425 L19.0855604,9.11276991 L19.0208022,9.27149558 L18.9622425,9.44938938 L18.9129806,9.65267257 L18.8945482,9.76684071 L18.8821512,9.8779823 L18.8759526,9.98912389 L18.8790519,10.0972389 L18.8883497,10.2051858 L18.9098814,10.3067434 L18.9376116,10.4020796 L18.9715403,10.4972478 L19.0177029,10.583 L19.0731634,10.6655575 L19.1377584,10.7386991 L19.2118144,10.8052832 L19.295005,10.8624513 L19.3904296,10.9100354 L19.4951519,10.9513982 L19.6122712,10.9799823 L19.6522354,10.9895664 L19.6985611,10.9989823 L19.7540215,11.0053717 L19.8155173,11.0117611 L19.8833748,11.0181504 L20.0313236,11.0181504 L20.1083157,11.0117611 L20.1884071,11.002177 L20.2684984,10.9863717 L20.3454906,10.964177 L20.4224827,10.9387876 L20.4994748,10.9038142 L20.5704315,10.8624513 L20.6350265,10.8116726 L20.6966855,10.7545044 L20.5580344,11.6024425 L20.539602,11.6182478 L20.5211696,11.6372478 L20.4965386,11.6596106 L20.4686453,11.6786106 L20.4348797,11.704 L20.3916532,11.7261947 L20.3423913,11.7483894 L20.2869309,11.7675575 L20.2161373,11.7897522 L20.1360459,11.8055575 L20.0435575,11.8183363 L19.9357359,11.8309469 L19.8155173,11.8373363 L19.6770294,11.840531 L19.5197828,11.8373363 L19.3473662,11.8279204 L19.2056159,11.8119469 L19.0638656,11.7801681 L18.9222784,11.7325841 L18.7805281,11.6690265 L18.6449763,11.5928584 L18.5154599,11.4975221 L18.3923052,11.3863805 L18.2782851,11.2594336 L18.176662,11.1165133 L18.0903722,10.9577876 L18.0164793,10.7798938 L17.9610189,10.5861947 L17.924154,10.3734956 L17.911757,10.1480177 L17.9179555,9.90034513 L17.9517211,9.63669912 L17.9763521,9.50655752 L18.0042454,9.37944248 L18.0349117,9.25569027 L18.0657412,9.13815929 L18.0996699,9.0270177 L18.1396341,8.91587611 L18.1797613,8.81112389 L18.2228247,8.71259292 L18.2691504,8.61423009 L18.3153131,8.5220885 L18.3676742,8.43314159 L18.4231347,8.35058407 L18.4785951,8.27122124 L18.540254,8.1950531 L18.6017498,8.12510619 L18.666508,8.05852212 L18.7373016,7.9949646 L18.8082583,7.93460177 L18.8821512,7.88062832 L18.9591433,7.82984956 L19.0423339,7.78226549 L19.1255245,7.74090265 L19.2118144,7.70290265 L19.3012035,7.6679292 L19.3966281,7.63615044 L19.4920526,7.61076106 L19.5907395,7.58856637 L19.6954619,7.56939823 L19.8001842,7.55342478 L19.911105,7.54081416 L20.0220258,7.53442478 L20.1391452,7.53139823 L20.237669,7.53442478 L20.3330935,7.54081416 L20.4255819,7.55023009 L20.5179072,7.56300885 L20.6043602,7.57578761 L20.6875508,7.59478761 L20.7674791,7.61076106 L20.841535,7.62976106 L20.9123286,7.64876106 L20.9739876,7.6679292 L21.0325472,7.6869292 L21.0818091,7.7059292 L21.1248725,7.72190265 L21.1619005,7.73451327 L21.1896307,7.74729204 L21.2080631,7.75368142 L21.0540789,8.63323009" id="Fill-21" fill="#FFFFFF"></path>
                            <path d="M21.0540789,8.63323009 L21.0540789,8.63323009 L21.0139517,8.6110354 L20.9739876,8.5920354 L20.9307611,8.56967257 L20.8845984,8.54747788 L20.8384358,8.52847788 L20.7860746,8.50947788 L20.7337135,8.49030973 L20.678253,8.47130973 L20.6196934,8.45550442 L20.5611337,8.44272566 L20.4965386,8.4299469 L20.4317804,8.42053097 L20.3608237,8.41414159 L20.2900301,8.40775221 L20.06199,8.40775221 L19.9818986,8.41414159 L19.898708,8.42372566 L19.8125812,8.43953097 L19.7262913,8.46492035 L19.6400014,8.49989381 L19.5537116,8.54428319 L19.4674217,8.60145133 L19.3843942,8.67139823 L19.3041397,8.75395575 L19.2271476,8.85551327 L19.1532547,8.97304425 L19.0855604,9.11276991 L19.0208022,9.27149558 L18.9622425,9.44938938 L18.9129806,9.65267257 L18.8945482,9.76684071 L18.8821512,9.8779823 L18.8759526,9.98912389 L18.8790519,10.0972389 L18.8883497,10.2051858 L18.9098814,10.3067434 L18.9376116,10.4020796 L18.9715403,10.4972478 L19.0177029,10.583 L19.0731634,10.6655575 L19.1377584,10.7386991 L19.2118144,10.8052832 L19.295005,10.8624513 L19.3904296,10.9100354 L19.4951519,10.9513982 L19.6122712,10.9799823 L19.6522354,10.9895664 L19.6985611,10.9989823 L19.7540215,11.0053717 L19.8155173,11.0117611 L19.8833748,11.0181504 L20.0313236,11.0181504 L20.1083157,11.0117611 L20.1884071,11.002177 L20.2684984,10.9863717 L20.3454906,10.964177 L20.4224827,10.9387876 L20.4994748,10.9038142 L20.5704315,10.8624513 L20.6350265,10.8116726 L20.6966855,10.7545044 L20.5580344,11.6024425 L20.539602,11.6182478 L20.5211696,11.6372478 L20.4965386,11.6596106 L20.4686453,11.6786106 L20.4348797,11.704 L20.3916532,11.7261947 L20.3423913,11.7483894 L20.2869309,11.7675575 L20.2161373,11.7897522 L20.1360459,11.8055575 L20.0435575,11.8183363 L19.9357359,11.8309469 L19.8155173,11.8373363 L19.6770294,11.840531 L19.5197828,11.8373363 L19.3473662,11.8279204 L19.2056159,11.8119469 L19.0638656,11.7801681 L18.9222784,11.7325841 L18.7805281,11.6690265 L18.6449763,11.5928584 L18.5154599,11.4975221 L18.3923052,11.3863805 L18.2782851,11.2594336 L18.176662,11.1165133 L18.0903722,10.9577876 L18.0164793,10.7798938 L17.9610189,10.5861947 L17.924154,10.3734956 L17.911757,10.1480177 L17.9179555,9.90034513 L17.9517211,9.63669912 L17.9763521,9.50655752 L18.0042454,9.37944248 L18.0349117,9.25569027 L18.0657412,9.13815929 L18.0996699,9.0270177 L18.1396341,8.91587611 L18.1797613,8.81112389 L18.2228247,8.71259292 L18.2691504,8.61423009 L18.3153131,8.5220885 L18.3676742,8.43314159 L18.4231347,8.35058407 L18.4785951,8.27122124 L18.540254,8.1950531 L18.6017498,8.12510619 L18.666508,8.05852212 L18.7373016,7.9949646 L18.8082583,7.93460177 L18.8821512,7.88062832 L18.9591433,7.82984956 L19.0423339,7.78226549 L19.1255245,7.74090265 L19.2118144,7.70290265 L19.3012035,7.6679292 L19.3966281,7.63615044 L19.4920526,7.61076106 L19.5907395,7.58856637 L19.6954619,7.56939823 L19.8001842,7.55342478 L19.911105,7.54081416 L20.0220258,7.53442478 L20.1391452,7.53139823 L20.237669,7.53442478 L20.3330935,7.54081416 L20.4255819,7.55023009 L20.5179072,7.56300885 L20.6043602,7.57578761 L20.6875508,7.59478761 L20.7674791,7.61076106 L20.841535,7.62976106 L20.9123286,7.64876106 L20.9739876,7.6679292 L21.0325472,7.6869292 L21.0818091,7.7059292 L21.1248725,7.72190265 L21.1619005,7.73451327 L21.1896307,7.74729204 L21.2080631,7.75368142 L21.0540789,8.63323009" id="Stroke-22" stroke="#FFFFFF" stroke-width="0.216"></path>
                            <path d="M28.6387802,11.8437257 L27.7853423,11.8437257 L27.8470012,11.4913009 L27.8470012,11.4595221 L27.7977393,11.5229115 L27.7453781,11.5800796 L27.693017,11.6310265 L27.6375566,11.6754159 L27.5820961,11.7167788 L27.5266357,11.7515841 L27.4711753,11.7801681 L27.4126156,11.8087522 L27.354056,11.8309469 L27.2954963,11.8469204 L27.2369366,11.8627257 L27.1754408,11.8723097 L27.1137819,11.8818938 L27.0552222,11.888115 L26.9935633,11.8913097 L26.9320674,11.8913097 L26.7718847,11.8786991 L26.6239359,11.8437257 L26.4883841,11.7897522 L26.3652294,11.7167788 L26.2543085,11.6246372 L26.1556216,11.5166903 L26.0694949,11.3991593 L25.9954389,11.265823 L25.93378,11.1229027 L25.8845181,10.9735929 L25.8505893,10.8180619 L25.8259584,10.6561416 L25.8168237,10.4940531 L25.819923,10.3289381 L25.8352562,10.1670177 L25.8629864,10.0050973 L25.909149,9.81778761 L25.9647725,9.63989381 L26.0293676,9.47797345 L26.1063597,9.32546903 L26.1864511,9.18254867 L26.2789395,9.05560177 L26.374364,8.94126549 L26.4761502,8.83651327 L26.5839718,8.74437168 L26.6978287,8.66500885 L26.8149481,8.59523009 L26.9320674,8.5410885 L27.0552222,8.49669912 L27.1783769,8.46811504 L27.3016948,8.44911504 L27.4279488,8.44272566 L27.517338,8.44592035 L27.6036278,8.45550442 L27.6837192,8.47130973 L27.7576121,8.49350442 L27.8285688,8.51889381 L27.8900646,8.54747788 L27.9517235,8.58245133 L28.0071839,8.61742478 L28.0564458,8.65542478 L28.1027716,8.69678761 L28.1427357,8.7379823 L28.1797637,8.77934513 L28.21043,8.82053982 L28.2383234,8.86190265 L28.2629543,8.9000708 L28.2813867,8.9380708 L28.4970299,7.69012389 L29.3349715,7.69012389 L28.6387802,11.8437257" id="Fill-23" fill="#FFFFFF"></path>
                            <path d="M28.6387802,11.8437257 L27.7853423,11.8437257 L27.8470012,11.4913009 L27.8470012,11.4595221 L27.7977393,11.5229115 L27.7453781,11.5800796 L27.693017,11.6310265 L27.6375566,11.6754159 L27.5820961,11.7167788 L27.5266357,11.7515841 L27.4711753,11.7801681 L27.4126156,11.8087522 L27.354056,11.8309469 L27.2954963,11.8469204 L27.2369366,11.8627257 L27.1754408,11.8723097 L27.1137819,11.8818938 L27.0552222,11.888115 L26.9935633,11.8913097 L26.9320674,11.8913097 L26.7718847,11.8786991 L26.6239359,11.8437257 L26.4883841,11.7897522 L26.3652294,11.7167788 L26.2543085,11.6246372 L26.1556216,11.5166903 L26.0694949,11.3991593 L25.9954389,11.265823 L25.93378,11.1229027 L25.8845181,10.9735929 L25.8505893,10.8180619 L25.8259584,10.6561416 L25.8168237,10.4940531 L25.819923,10.3289381 L25.8352562,10.1670177 L25.8629864,10.0050973 L25.909149,9.81778761 L25.9647725,9.63989381 L26.0293676,9.47797345 L26.1063597,9.32546903 L26.1864511,9.18254867 L26.2789395,9.05560177 L26.374364,8.94126549 L26.4761502,8.83651327 L26.5839718,8.74437168 L26.6978287,8.66500885 L26.8149481,8.59523009 L26.9320674,8.5410885 L27.0552222,8.49669912 L27.1783769,8.46811504 L27.3016948,8.44911504 L27.4279488,8.44272566 L27.517338,8.44592035 L27.6036278,8.45550442 L27.6837192,8.47130973 L27.7576121,8.49350442 L27.8285688,8.51889381 L27.8900646,8.54747788 L27.9517235,8.58245133 L28.0071839,8.61742478 L28.0564458,8.65542478 L28.1027716,8.69678761 L28.1427357,8.7379823 L28.1797637,8.77934513 L28.21043,8.82053982 L28.2383234,8.86190265 L28.2629543,8.9000708 L28.2813867,8.9380708 L28.4970299,7.69012389 L29.3349715,7.69012389 L28.6387802,11.8437257" id="Stroke-24" stroke="#FFFFFF" stroke-width="0.216"></path>
                            <path d="M27.2431351,11.0753186 L27.329425,11.0689292 L27.4095164,11.0499292 L27.4834092,11.0275664 L27.5543659,10.9925929 L27.618961,10.9545929 L27.6806199,10.9068407 L27.7391796,10.8530354 L27.7915408,10.7956991 L27.8377034,10.7323097 L27.8809299,10.6623628 L27.920894,10.5893894 L27.9548228,10.5132212 L27.9856522,10.4338584 L28.0102832,10.3513009 L28.0318149,10.2655487 L28.0473112,10.1797965 L28.0626443,10.0908496 L28.0719421,9.99870796 L28.0719421,9.91295575 L28.0688429,9.82417699 L28.0595451,9.74145133 L28.0473112,9.6620885 L28.0256164,9.58592035 L28.0009854,9.51277876 L27.9703191,9.44938938 L27.9332911,9.38902655 L27.8931638,9.33824779 L27.8470012,9.29369027 L27.79464,9.25569027 L27.7391796,9.23030088 L27.6806199,9.21432743 L27.6158618,9.20793805 L27.5326711,9.21432743 L27.4558421,9.22710619 L27.3848854,9.25249558 L27.3140918,9.28427434 L27.2524329,9.32546903 L27.190774,9.37641593 L27.1384128,9.43022124 L27.0860517,9.49058407 L27.039889,9.56053097 L26.9966625,9.63350442 L26.9566984,9.70967257 L26.9227697,9.79223009 L26.8919402,9.8779823 L26.8673093,9.96373451 L26.8426783,10.0558761 L26.8242459,10.1480177 L26.8087496,10.2877434 L26.8149481,10.4400796 L26.8364798,10.5957788 L26.876607,10.7449204 L26.938266,10.8752301 L27.0183573,10.9799823 L27.1199804,11.0499292 L27.2431351,11.0753186" id="Fill-25" fill="#CFCFCF"></path>
                            <path d="M8.32460847,11.138708 L8.20145372,11.8437257 L7.42500789,11.8437257 L7.44653958,11.7135841 L7.46203588,11.5960531 L7.47426979,11.5071062 L7.48666683,11.4595221 L7.44360344,11.5103009 L7.39417843,11.5610796 L7.33578187,11.6086637 L7.27102368,11.6532212 L7.19713083,11.6976106 L7.1199756,11.7357788 L7.03988424,11.7737788 L6.95669361,11.8055575 L6.86746759,11.8341416 L6.77807845,11.8565044 L6.68868931,11.8755044 L6.59636403,11.888115 L6.50697489,11.8945044 L6.41758575,11.8976991 L6.33145898,11.888115 L6.24826836,11.8755044 L6.14044678,11.8469204 L6.04175987,11.8151416 L5.9556331,11.7737788 L5.87847788,11.7261947 L5.81078354,11.6754159 L5.74912461,11.6182478 L5.69986271,11.557885 L5.65663621,11.4944956 L5.61977135,11.4277434 L5.58894188,11.3577965 L5.56431093,11.2880177 L5.5458785,11.2182389 L5.53348146,11.1450973 L5.52434681,11.0721239 L5.51814829,11.002177 L5.51814829,10.9323982 L5.52728295,10.8084779 L5.5458785,10.6909469 L5.57654485,10.5798053 L5.61667209,10.4718584 L5.66593399,10.3703009 L5.7213944,10.2781593 L5.7861526,10.1892124 L5.86004544,10.1098496 L5.93703755,10.0368761 L6.02332743,9.97012389 L6.11271657,9.90976106 L6.20504186,9.8589823 L6.30372877,9.81459292 L6.40535183,9.77961947 L6.51007414,9.7510354 L6.61789572,9.7320354 L6.62409424,9.7320354 L6.63942741,9.72884071 L6.66112222,9.72564602 L6.69505094,9.72245133 L6.73191581,9.71606195 L6.77497919,9.71286726 L6.82114183,9.70664602 L6.87366611,9.70025664 L6.92602727,9.69386726 L6.97838842,9.68747788 L7.03384884,9.68428319 L7.08311074,9.67806195 L7.13237264,9.67486726 L7.17853528,9.67167257 L7.22176178,9.66847788 L7.32648409,9.66847788 L7.40037694,9.67167257 L7.46823439,9.67486726 L7.53592873,9.67486726 L7.59138914,9.67806195 L7.63445252,9.68125664 L7.66528199,9.68428319 L7.67457977,9.68428319 L7.68077828,9.6620885 L7.69921072,9.60492035 L7.71470701,9.53833628 L7.72090552,9.47797345 L7.70850849,9.40802655 L7.68077828,9.34463717 L7.6437503,9.28746903 L7.5944884,9.23971681 L7.53592873,9.19852212 L7.47117053,9.16993805 L7.39727768,9.15093805 L7.31718632,9.14454867 L7.23105956,9.14135398 L7.13857116,9.13815929 L7.0429835,9.13815929 L6.9444597,9.14135398 L6.84283664,9.14774336 L6.74414972,9.15715929 L6.64562593,9.16674336 L6.55003827,9.17952212 L6.45771299,9.19213274 L6.36832385,9.20793805 L6.28823248,9.2239115 L6.21433963,9.23971681 L6.14648218,9.25888496 L6.09118488,9.27788496 L6.04795838,9.30007965 L6.01402966,9.31907965 L6.23277206,8.55386726 L6.30062951,8.52528319 L6.36832385,8.49989381 L6.44221669,8.47753097 L6.51627266,8.46172566 L6.59016551,8.44592035 L6.67025688,8.43314159 L6.75034824,8.42053097 L6.83353887,8.41414159 L6.91982875,8.40775221 L7.00905477,8.40455752 L7.10154317,8.40136283 L7.39727768,8.40136283 L7.50509926,8.40455752 L7.61292083,8.40775221 L7.69921072,8.41414159 L7.79169912,8.4299469 L7.88712365,8.45230973 L7.98564745,8.48089381 L8.08123511,8.51889381 L8.17356039,8.56345133 L8.26604879,8.61742478 L8.35233867,8.67778761 L8.42933078,8.74756637 L8.49718823,8.82373451 L8.55868405,8.90948673 L8.60500981,9.00482301 L8.63567615,9.10638053 L8.65427171,9.21432743 L8.65427171,9.3350531 L8.63567615,9.46216814 L8.32460847,11.138708" id="Fill-26" fill="#FFFFFF"></path>
                            <path d="M8.32460847,11.138708 L8.20145372,11.8437257 L7.42500789,11.8437257 L7.44653958,11.7135841 L7.46203588,11.5960531 L7.47426979,11.5071062 L7.48666683,11.4595221 L7.44360344,11.5103009 L7.39417843,11.5610796 L7.33578187,11.6086637 L7.27102368,11.6532212 L7.19713083,11.6976106 L7.1199756,11.7357788 L7.03988424,11.7737788 L6.95669361,11.8055575 L6.86746759,11.8341416 L6.77807845,11.8565044 L6.68868931,11.8755044 L6.59636403,11.888115 L6.50697489,11.8945044 L6.41758575,11.8976991 L6.33145898,11.888115 L6.24826836,11.8755044 L6.14044678,11.8469204 L6.04175987,11.8151416 L5.9556331,11.7737788 L5.87847788,11.7261947 L5.81078354,11.6754159 L5.74912461,11.6182478 L5.69986271,11.557885 L5.65663621,11.4944956 L5.61977135,11.4277434 L5.58894188,11.3577965 L5.56431093,11.2880177 L5.5458785,11.2182389 L5.53348146,11.1450973 L5.52434681,11.0721239 L5.51814829,11.002177 L5.51814829,10.9323982 L5.52728295,10.8084779 L5.5458785,10.6909469 L5.57654485,10.5798053 L5.61667209,10.4718584 L5.66593399,10.3703009 L5.7213944,10.2781593 L5.7861526,10.1892124 L5.86004544,10.1098496 L5.93703755,10.0368761 L6.02332743,9.97012389 L6.11271657,9.90976106 L6.20504186,9.8589823 L6.30372877,9.81459292 L6.40535183,9.77961947 L6.51007414,9.7510354 L6.61789572,9.7320354 L6.62409424,9.7320354 L6.63942741,9.72884071 L6.66112222,9.72564602 L6.69505094,9.72245133 L6.73191581,9.71606195 L6.77497919,9.71286726 L6.82114183,9.70664602 L6.87366611,9.70025664 L6.92602727,9.69386726 L6.97838842,9.68747788 L7.03384884,9.68428319 L7.08311074,9.67806195 L7.13237264,9.67486726 L7.17853528,9.67167257 L7.22176178,9.66847788 L7.32648409,9.66847788 L7.40037694,9.67167257 L7.46823439,9.67486726 L7.53592873,9.67486726 L7.59138914,9.67806195 L7.63445252,9.68125664 L7.66528199,9.68428319 L7.67457977,9.68428319 L7.68077828,9.6620885 L7.69921072,9.60492035 L7.71470701,9.53833628 L7.72090552,9.47797345 L7.70850849,9.40802655 L7.68077828,9.34463717 L7.6437503,9.28746903 L7.5944884,9.23971681 L7.53592873,9.19852212 L7.47117053,9.16993805 L7.39727768,9.15093805 L7.31718632,9.14454867 L7.23105956,9.14135398 L7.13857116,9.13815929 L7.0429835,9.13815929 L6.9444597,9.14135398 L6.84283664,9.14774336 L6.74414972,9.15715929 L6.64562593,9.16674336 L6.55003827,9.17952212 L6.45771299,9.19213274 L6.36832385,9.20793805 L6.28823248,9.2239115 L6.21433963,9.23971681 L6.14648218,9.25888496 L6.09118488,9.27788496 L6.04795838,9.30007965 L6.01402966,9.31907965 L6.23277206,8.55386726 L6.30062951,8.52528319 L6.36832385,8.49989381 L6.44221669,8.47753097 L6.51627266,8.46172566 L6.59016551,8.44592035 L6.67025688,8.43314159 L6.75034824,8.42053097 L6.83353887,8.41414159 L6.91982875,8.40775221 L7.00905477,8.40455752 L7.10154317,8.40136283 L7.39727768,8.40136283 L7.50509926,8.40455752 L7.61292083,8.40775221 L7.69921072,8.41414159 L7.79169912,8.4299469 L7.88712365,8.45230973 L7.98564745,8.48089381 L8.08123511,8.51889381 L8.17356039,8.56345133 L8.26604879,8.61742478 L8.35233867,8.67778761 L8.42933078,8.74756637 L8.49718823,8.82373451 L8.55868405,8.90948673 L8.60500981,9.00482301 L8.63567615,9.10638053 L8.65427171,9.21432743 L8.65427171,9.3350531 L8.63567615,9.46216814 L8.32460847,11.138708" id="Stroke-27" stroke="#FFFFFF" stroke-width="0.216"></path>
                            <path d="M7.58209137,10.3099381 L7.57899211,10.2939646 L7.56675819,10.2781593 L7.54832576,10.2685752 L7.51749629,10.262354 L7.48356757,10.2559646 L7.44360344,10.2527699 L7.35111504,10.2527699 L7.30185315,10.2559646 L7.24949199,10.262354 L7.20006697,10.2685752 L7.15080507,10.2749646 L7.10464243,10.281354 L7.06157905,10.2909381 L7.02455106,10.300354 L6.99062234,10.3099381 L6.96909065,10.3163274 L6.9444597,10.3259115 L6.91053097,10.3385221 L6.87676537,10.3543274 L6.83663812,10.3734956 L6.79651088,10.3956903 L6.7534475,10.417885 L6.71332026,10.4432743 L6.67025688,10.4750531 L6.63029275,10.5068319 L6.59326477,10.545 L6.55933604,10.583 L6.52850658,10.6243628 L6.50697489,10.6687522 L6.48854245,10.719531 L6.47924468,10.7703097 L6.47614542,10.8784248 L6.49164171,10.964177 L6.52247118,11.0275664 L6.5624353,11.0753186 L6.60859794,11.1069292 L6.66112222,11.1260973 L6.71038412,11.1355133 L6.75964602,11.138708 L6.85213442,11.1355133 L6.93516192,11.1260973 L7.01541641,11.1133186 L7.08621,11.0941504 L7.14786893,11.0721239 L7.20626549,11.0435398 L7.25862664,11.0149558 L7.3049524,10.9799823 L7.34491653,10.9482035 L7.38194451,10.9100354 L7.41277398,10.8752301 L7.43740493,10.8370619 L7.45893662,10.7988938 L7.47736905,10.7608938 L7.49286534,10.7259204 L7.502,10.6909469 L7.52663095,10.5989735 L7.54832576,10.4940531 L7.56675819,10.3924956 L7.58209137,10.3099381" id="Fill-28" fill="#CFCFCF"></path>
                            <path d="M1.84275389,11.8437257 L1.00481225,11.8437257 L1.70426597,7.67431858 L3.16140684,7.67431858 L3.29989476,10.1480177 L4.30731691,7.67431858 L5.8293791,7.67431858 L5.11442908,11.8437257 L4.27648744,11.8437257 L4.80646066,8.72856637 L4.77253193,8.72856637 L3.51880029,11.8437257 L2.57287395,11.8437257 L2.56667544,11.7135841 L2.54514375,11.3673805 L2.51741354,10.8752301 L2.45591772,9.74145133 L2.42818751,9.2429115 L2.40665582,8.88090265 L2.40045731,8.72856637 L2.35413155,8.72856637 L1.84275389,11.8437257" id="Fill-29" fill="#FFFFFF"></path>
                            <path d="M1.84275389,11.8437257 L1.00481225,11.8437257 L1.70426597,7.67431858 L3.16140684,7.67431858 L3.29989476,10.1480177 L4.30731691,7.67431858 L5.8293791,7.67431858 L5.11442908,11.8437257 L4.27648744,11.8437257 L4.80646066,8.72856637 L4.77253193,8.72856637 L3.51880029,11.8437257 L2.57287395,11.8437257 L2.56667544,11.7135841 L2.54514375,11.3673805 L2.51741354,10.8752301 L2.45591772,9.74145133 L2.42818751,9.2429115 L2.40665582,8.88090265 L2.40045731,8.72856637 L2.35413155,8.72856637 L1.84275389,11.8437257" id="Stroke-30" stroke="#FFFFFF" stroke-width="0.216"></path>
                            <path d="M23.6142296,11.138708 L23.4878125,11.8437257 L22.714629,11.8437257 L22.7206644,11.7135841 L22.7237637,11.5992478 L22.7237637,11.5134956 L22.7299622,11.4753274 L22.689835,11.5229115 L22.6436723,11.5706637 L22.5882119,11.6150531 L22.5267161,11.6596106 L22.4619579,11.7008053 L22.3879019,11.7389735 L22.3110729,11.7769735 L22.2339177,11.8087522 L22.1507271,11.8341416 L22.0646003,11.859531 L21.9783105,11.8755044 L21.8920206,11.888115 L21.8026314,11.8945044 L21.7163415,11.8976991 L21.6331509,11.888115 L21.5499603,11.8755044 L21.4390395,11.8469204 L21.3405157,11.8151416 L21.2542258,11.7737788 L21.1742975,11.7261947 L21.1064401,11.6754159 L21.0478804,11.6182478 L20.9986185,11.557885 L20.955392,11.4944956 L20.9185271,11.4277434 L20.8907969,11.3577965 L20.866166,11.2880177 L20.8506697,11.2182389 L20.8384358,11.1450973 L20.829138,11.0721239 L20.8229395,11.002177 L20.8229395,10.9323982 L20.829138,10.8084779 L20.8475704,10.6909469 L20.8753006,10.5798053 L20.9154279,10.4718584 L20.9615905,10.3703009 L21.0201502,10.2781593 L21.0849084,10.1892124 L21.155702,10.1098496 L21.2357934,10.0368761 L21.318984,9.97012389 L21.4083731,9.90976106 L21.5037977,9.8589823 L21.5993853,9.81459292 L21.7010084,9.77961947 L21.8026314,9.7510354 L21.9073537,9.7320354 L21.9135523,9.7320354 L21.9288854,9.72884071 L21.9505802,9.72564602 L21.9814097,9.72245133 L22.0213738,9.71606195 L22.0646003,9.71286726 L22.110763,9.70664602 L22.1600249,9.70025664 L22.212386,9.69386726 L22.2678464,9.68747788 L22.3202076,9.68428319 L22.3725688,9.67806195 L22.4218307,9.67486726 L22.4650572,9.67167257 L22.5081205,9.66847788 L22.6159421,9.66847788 L22.689835,9.67167257 L22.7607917,9.67486726 L22.828486,9.67486726 L22.8870457,9.67806195 L22.9363076,9.68125664 L22.9642009,9.68428319 L22.9764348,9.68428319 L22.9826333,9.6620885 L22.991768,9.60492035 L23.0010658,9.53833628 L23.0072643,9.47797345 L22.9948673,9.40802655 L22.9702363,9.34463717 L22.9302722,9.28746903 L22.8839464,9.23971681 L22.828486,9.19852212 L22.7638909,9.16993805 L22.6960335,9.15093805 L22.6221406,9.14454867 L22.5358508,9.14135398 L22.4435255,9.13815929 L22.3479378,9.13815929 L22.249414,9.14135398 L22.1476278,9.14774336 L22.049104,9.15715929 L21.9505802,9.16674336 L21.8549926,9.17952212 L21.7626673,9.19213274 L21.6732782,9.20793805 L21.5931868,9.2239115 L21.5192939,9.23971681 L21.4514365,9.25888496 L21.3959761,9.27788496 L21.3529127,9.30007965 L21.318984,9.31907965 L21.5346271,8.55386726 L21.6024846,8.52528319 L21.6732782,8.49989381 L21.7440718,8.47753097 L21.8181277,8.46172566 L21.8951198,8.44592035 L21.9721119,8.43314159 L22.0522033,8.42053097 L22.1353939,8.41414159 L22.2216838,8.40775221 L22.3110729,8.40455752 L22.400299,8.40136283 L22.689835,8.40136283 L22.7945573,8.40455752 L22.8994427,8.40775221 L22.9857326,8.41414159 L23.0780579,8.4299469 L23.1736455,8.45230973 L23.2721693,8.48089381 L23.3675939,8.51889381 L23.4631815,8.56345133 L23.5555068,8.61742478 L23.6417967,8.67778761 L23.7187888,8.74756637 L23.7897455,8.82373451 L23.8514044,8.90948673 L23.8975671,9.00482301 L23.9313327,9.10638053 L23.9530275,9.21432743 L23.9530275,9.3350531 L23.9375312,9.46216814 L23.6142296,11.138708" id="Fill-31" fill="#FFFFFF"></path>
                            <path id="Fill-32" fill="#FFFFFF" d="M23.4878125,11.8659204 L23.5062449,11.8469204 L23.632662,11.1419027 L23.5956341,11.1355133 L23.4693801,11.840531 L23.4878125,11.821531 L23.4878125,11.8659204 L23.5031457,11.8627257 L23.5062449,11.8469204 L23.4878125,11.8659204"></path>
                            <path id="Fill-33" fill="#FFFFFF" d="M22.6960335,11.8437257 L22.714629,11.8659204 L23.4878125,11.8659204 L23.4878125,11.821531 L22.714629,11.821531 L22.7330615,11.8437257 L22.6960335,11.8437257 L22.6929342,11.8659204 L22.714629,11.8659204 L22.6960335,11.8437257"></path>
                            <path id="Fill-34" fill="#FFFFFF" d="M22.7452954,11.4881062 L22.7177283,11.4627168 L22.7053313,11.5134956 L22.702232,11.5992478 L22.702232,11.7135841 L22.6960335,11.8437257 L22.7330615,11.8437257 L22.73926,11.7135841 L22.7452954,11.5992478 L22.7421961,11.5134956 L22.7421961,11.4881062 L22.714629,11.4627168 L22.7452954,11.4881062"></path>
                            <path id="Fill-35" fill="#FFFFFF" d="M21.5470242,11.8945044 L21.5470242,11.8945044 L21.6331509,11.9072832 L21.7163415,11.9168673 L21.8026314,11.9136726 L21.8920206,11.9072832 L21.9814097,11.8945044 L22.0676996,11.8786991 L22.1538264,11.8531416 L22.2401162,11.8279204 L22.3171083,11.7961416 L22.3971997,11.7579735 L22.4710926,11.7199735 L22.5358508,11.6754159 L22.6006089,11.6310265 L22.6560694,11.586469 L22.7053313,11.5356903 L22.7452954,11.4881062 L22.714629,11.4627168 L22.6745018,11.5103009 L22.6314384,11.5546903 L22.575978,11.5992478 L22.5174183,11.6436372 L22.4528232,11.6818053 L22.3048744,11.7579735 L22.2277192,11.7897522 L22.1476278,11.8151416 L22.0615011,11.840531 L21.9752112,11.8565044 L21.8920206,11.869115 L21.8026314,11.8755044 L21.7163415,11.8786991 L21.6331509,11.869115 L21.5530596,11.8565044 L21.5470242,11.8945044"></path>
                            <path d="M20.8014078,10.9323982 L20.8014078,10.9323982 L20.8045071,11.002177 L20.8107056,11.0721239 L20.8198402,11.148292 L20.8322373,11.2212655 L20.8475704,11.2912124 L20.8723645,11.3641858 L20.9000947,11.4373274 L20.9400588,11.5039115 L20.9832853,11.5706637 L21.0325472,11.6310265 L21.0940431,11.6912212 L21.1649998,11.7421681 L21.2450911,11.7929469 L21.3343171,11.8341416 L21.4361033,11.8659204 L21.5470242,11.8945044 L21.5530596,11.8565044 L21.4421387,11.8279204 L21.3467142,11.7961416 L21.2635236,11.7547788 L21.1834322,11.7103894 L21.118674,11.6596106 L21.0632136,11.6056372 L21.0139517,11.5452743 L20.9708883,11.4849115 L20.9369596,11.4181593 L20.9092294,11.3515752 L20.8845984,11.284823 L20.8692652,11.2150442 L20.8568682,11.1419027 L20.8475704,11.0721239 L20.841535,11.002177 L20.8444712,10.9323982 L20.8014078,10.9323982" id="Fill-36" fill="#FFFFFF"></path>
                            <path d="M21.9073537,9.71286726 L21.9073537,9.71286726 L21.7995322,9.7320354 L21.6948099,9.76061947 L21.5931868,9.79542478 L21.494663,9.8399823 L21.3990753,9.89076106 L21.3065869,9.95431858 L21.2235594,10.0209027 L21.143305,10.0972389 L21.0694121,10.1766018 L21.004817,10.2655487 L20.9431581,10.3607168 L20.8969955,10.465469 L20.8568682,10.5735841 L20.829138,10.6877522 L20.8107056,10.8084779 L20.8014078,10.9323982 L20.8444712,10.9323982 L20.8475704,10.8084779 L20.866166,10.6941416 L20.8938962,10.5861947 L20.9338603,10.4782478 L20.980023,10.3797168 L21.0354834,10.2909381 L21.1002416,10.2019912 L21.168099,10.1226283 L21.2481904,10.0526814 L21.3312179,9.98609735 L21.4175078,9.9289292 L21.5130954,9.8779823 L21.6054207,9.83359292 L21.7072069,9.79861947 L21.8057307,9.7700354 L21.9073537,9.7510354 L21.9073537,9.71286726" id="Fill-37" fill="#FFFFFF"></path>
                            <path id="Fill-38" fill="#FFFFFF" d="M22.5420493,9.64628319 L22.5081205,9.64628319 L22.4650572,9.65267257 L22.4218307,9.65586726 L22.3725688,9.65889381 L22.3202076,9.66528319 L22.2678464,9.66847788 L22.212386,9.67486726 L22.1600249,9.68125664 L22.110763,9.68747788 L22.0646003,9.69386726 L22.0213738,9.69706195 L21.9814097,9.70345133 L21.9505802,9.70664602 L21.9257862,9.70967257 L21.9135523,9.71286726 L21.9073537,9.71286726 L21.9073537,9.7510354 L21.9135523,9.7510354 L21.9319847,9.74784071 L21.9505802,9.74464602 L21.9814097,9.74145133 L22.0213738,9.73523009 L22.0646003,9.7320354 L22.110763,9.72564602 L22.1600249,9.71925664 L22.212386,9.71286726 L22.2678464,9.70664602 L22.3202076,9.70345133 L22.3725688,9.69706195 L22.4218307,9.69386726 L22.4650572,9.69067257 L22.5420493,9.69067257 L22.5420493,9.64628319"></path>
                            <path id="Fill-39" fill="#FFFFFF" d="M22.9578393,9.68125664 L22.9764348,9.66528319 L22.9642009,9.66528319 L22.9363076,9.6620885 L22.8870457,9.65889381 L22.828486,9.65267257 L22.689835,9.65267257 L22.6159421,9.64628319 L22.5420493,9.64628319 L22.5420493,9.69067257 L22.689835,9.69067257 L22.7607917,9.69706195 L22.8870457,9.69706195 L22.9363076,9.70025664 L22.9642009,9.70345133 L22.9764348,9.70345133 L22.9948673,9.68747788 L22.9764348,9.70345133 L22.991768,9.70664602 L22.9948673,9.68747788 L22.9578393,9.68125664"></path>
                            <path id="Fill-40" fill="#FFFFFF" d="M22.9886687,9.47797345 L22.9857326,9.47797345 L22.9826333,9.53833628 L22.9733356,9.60172566 L22.9642009,9.65889381 L22.9578393,9.68125664 L22.9948673,9.68747788 L23.0010658,9.66528319 L23.0103635,9.60811504 L23.0194982,9.53833628 L23.028796,9.47797345 L22.9886687,9.47797345"></path>
                            <path id="Fill-41" fill="#FFFFFF" d="M22.6221406,9.16354867 L22.6221406,9.16674336 L22.6929342,9.16993805 L22.7576924,9.18893805 L22.8193514,9.21752212 L22.8717125,9.25569027 L22.9147759,9.30007965 L22.9518039,9.3540531 L22.9764348,9.41122124 L22.9886687,9.47797345 L23.0256967,9.47797345 L23.0132997,9.40483186 L22.9886687,9.3350531 L22.9456054,9.27469027 L22.8963435,9.2239115 L22.8377838,9.17952212 L22.7699263,9.15093805 L22.6991327,9.13176991 L22.6221406,9.12235398 L22.6221406,9.16354867"></path>
                            <path id="Fill-42" fill="#FFFFFF" d="M21.3005515,9.3160531 L21.3312179,9.3350531 L21.3622105,9.31907965 L21.4021746,9.29688496 L21.4545358,9.27788496 L21.5222301,9.25888496 L21.5962861,9.2429115 L21.6763774,9.22710619 L21.7657666,9.21113274 L21.8549926,9.19852212 L21.9505802,9.18574336 L22.049104,9.17632743 L22.1476278,9.16674336 L22.249414,9.16035398 L22.5358508,9.16035398 L22.6221406,9.16354867 L22.6221406,9.12538053 L22.5358508,9.12235398 L22.4435255,9.1159646 L22.3479378,9.1159646 L22.249414,9.12235398 L22.1476278,9.12857522 L22.049104,9.13815929 L21.9505802,9.14774336 L21.8549926,9.16035398 L21.759568,9.17313274 L21.6701789,9.18893805 L21.5900875,9.2049115 L21.5161947,9.22071681 L21.4483372,9.23971681 L21.3897776,9.25888496 L21.3436149,9.28107965 L21.3065869,9.30327434 L21.3374164,9.32227434 L21.3005515,9.3160531"></path>
                            <path id="Fill-43" fill="#FFFFFF" d="M21.5284286,8.53486726 L21.5161947,8.55067257 L21.3005515,9.3160531 L21.3374164,9.32227434 L21.5530596,8.55706195 L21.5408256,8.57286726 L21.5284286,8.53486726 L21.5192939,8.53789381 L21.5161947,8.55067257 L21.5284286,8.53486726"></path>
                            <path id="Fill-44" fill="#FFFFFF" d="M22.8994427,8.38875221 L22.8994427,8.38875221 L22.7945573,8.38236283 L22.689835,8.37916814 L22.400299,8.37916814 L22.3110729,8.38555752 L22.2216838,8.38875221 L22.1353939,8.39514159 L22.0522033,8.40136283 L21.9690127,8.41414159 L21.8920206,8.42675221 L21.8150285,8.44272566 L21.7409725,8.45869912 L21.6670796,8.48089381 L21.5962861,8.50628319 L21.5284286,8.53486726 L21.5408256,8.57286726 L21.60852,8.54428319 L21.6794767,8.51889381 L21.747171,8.49669912 L21.8210639,8.48089381 L21.8982191,8.46492035 L21.9752112,8.45230973 L22.0522033,8.43953097 L22.1353939,8.43314159 L22.2216838,8.42675221 L22.3110729,8.42372566 L22.689835,8.42372566 L22.7945573,8.42675221 L22.8994427,8.42675221 L22.8994427,8.38875221"></path>
                            <path d="M23.9559636,9.46519469 L23.9559636,9.46519469 L23.9714599,9.3350531 L23.9714599,9.21432743 L23.9499282,9.10318584 L23.9159995,8.99843363 L23.8667376,8.9000708 L23.8050787,8.81112389 L23.7311858,8.73176106 L23.6541937,8.66181416 L23.5648046,8.60145133 L23.4723162,8.54428319 L23.3737924,8.49989381 L23.2782047,8.46172566 L23.1767448,8.43314159 L23.0811571,8.4109469 L22.9857326,8.39514159 L22.8994427,8.38875221 L22.8994427,8.42675221 L22.9857326,8.43314159 L23.0749586,8.44911504 L23.1705463,8.47130973 L23.2659708,8.49989381 L23.3615585,8.53789381 L23.4538838,8.58245133 L23.5463722,8.63323009 L23.6295628,8.69359292 L23.7065549,8.76353982 L23.7742492,8.83651327 L23.8359082,8.9190708 L23.8791347,9.01121239 L23.9129003,9.10957522 L23.934432,9.21432743 L23.934432,9.3350531 L23.9190988,9.45880531 L23.9559636,9.46519469" id="Fill-45" fill="#FFFFFF"></path>
                            <path id="Fill-46" fill="#FFFFFF" d="M23.632662,11.1419027 L23.632662,11.1419027 L23.9559636,9.46519469 L23.9190988,9.45880531 L23.5956341,11.1355133 L23.632662,11.1419027"></path>
                            <path d="M22.8686133,10.3099381 L22.8624147,10.2909381 L22.8501808,10.2749646 L22.828486,10.2655487 L22.7978197,10.2559646 L22.7638909,10.2527699 L22.7237637,10.2495752 L22.6776011,10.2495752 L22.6314384,10.2527699 L22.5821765,10.2591593 L22.5327515,10.2655487 L22.4834896,10.2717699 L22.437327,10.2781593 L22.3910012,10.2877434 L22.3510371,10.2939646 L22.3110729,10.3035487 L22.2800804,10.3099381 L22.2585487,10.3131327 L22.2339177,10.3225487 L22.2032514,10.3321327 L22.1693227,10.3449115 L22.1291954,10.3639115 L22.0921674,10.3829115 L22.049104,10.4051062 L22.0091399,10.4338584 L21.9690127,10.4624425 L21.9288854,10.4972478 L21.8951198,10.5322212 L21.8611911,10.5735841 L21.8334609,10.6179735 L21.8119292,10.6655575 L21.7933337,10.7163363 L21.784199,10.7703097 L21.7810997,10.8784248 L21.7964329,10.964177 L21.8210639,11.0275664 L21.8580918,11.0753186 L21.9042545,11.1069292 L21.9566156,11.1260973 L22.0091399,11.1355133 L22.0615011,11.138708 L22.1538264,11.1355133 L22.2401162,11.1260973 L22.3202076,11.1101239 L22.3910012,11.0879292 L22.4588586,11.0625398 L22.5174183,11.0339558 L22.5728787,11.002177 L22.6221406,10.964177 L22.665204,10.9292035 L22.702232,10.8878407 L22.7361607,10.8498407 L22.7638909,10.8084779 L22.7854226,10.7703097 L22.8007558,10.7323097 L22.8131528,10.6941416 L22.8224506,10.6593363 L22.8346845,10.5703894 L22.8501808,10.4782478 L22.8624147,10.3893009 L22.8686133,10.3099381" id="Fill-47" fill="#CFCFCF"></path>
                            <path d="M23.8452059,11.8437257 L24.7138139,11.8437257 L25.0252078,10.0368761 L25.0374418,9.9669292 L25.0743066,9.82720354 L25.0991007,9.75742478 L25.129767,9.68747788 L25.166795,9.62089381 L25.2067591,9.55733628 L25.2561842,9.49697345 L25.3116446,9.443 L25.3731404,9.39222124 L25.4440971,9.34463717 L25.5241885,9.30646903 L25.6134145,9.27469027 L25.7121014,9.24930088 L25.819923,9.23030088 L25.9401416,9.2239115 L26.0169706,9.2239115 L26.1556216,8.40775221 L26.0694949,8.41414159 L25.9863042,8.42372566 L25.909149,8.43953097 L25.8352562,8.46172566 L25.7675618,8.48711504 L25.7028036,8.51889381 L25.6411447,8.55386726 L25.5827481,8.5920354 L25.5272877,8.63642478 L25.4749266,8.6809823 L25.3762397,8.78253982 L25.330077,8.83651327 L25.2839144,8.89687611 L25.2375886,8.95404425 L25.1945252,9.01743363 L25.2870136,8.44272566 L24.4213418,8.44272566 L23.8452059,11.8437257" id="Fill-48" fill="#FFFFFF"></path>
                            <path d="M23.8452059,11.8437257 L24.7138139,11.8437257 L25.0252078,10.0368761 L25.0374418,9.9669292 L25.0743066,9.82720354 L25.0991007,9.75742478 L25.129767,9.68747788 L25.166795,9.62089381 L25.2067591,9.55733628 L25.2561842,9.49697345 L25.3116446,9.443 L25.3731404,9.39222124 L25.4440971,9.34463717 L25.5241885,9.30646903 L25.6134145,9.27469027 L25.7121014,9.24930088 L25.819923,9.23030088 L25.9401416,9.2239115 L26.0169706,9.2239115 L26.1556216,8.40775221 L26.0694949,8.41414159 L25.9863042,8.42372566 L25.909149,8.43953097 L25.8352562,8.46172566 L25.7675618,8.48711504 L25.7028036,8.51889381 L25.6411447,8.55386726 L25.5827481,8.5920354 L25.5272877,8.63642478 L25.4749266,8.6809823 L25.3762397,8.78253982 L25.330077,8.83651327 L25.2839144,8.89687611 L25.2375886,8.95404425 L25.1945252,9.01743363 L25.2870136,8.44272566 L24.4213418,8.44272566 L23.8452059,11.8437257" id="Stroke-49" stroke="#FFFFFF" stroke-width="0.216"></path>
                            <path d="M15.6874681,11.8437257 L16.5715724,11.8437257 L16.8673069,10.0368761 L16.8797039,9.9669292 L16.8950371,9.90034513 L16.9105334,9.83359292 L16.9320651,9.7700354 L16.956696,9.70664602 L16.9875255,9.64628319 L17.0245535,9.58911504 L17.0676168,9.53514159 L17.1168787,9.48738938 L17.1723392,9.43980531 L17.2401966,9.40180531 L17.3140895,9.36683186 L17.4003793,9.33824779 L17.4958039,9.31285841 L17.6005262,9.29688496 L17.7207448,9.28746903 L17.7300426,9.28746903 L17.7422765,9.29066372 L17.7577728,9.29369027 L17.773106,9.29369027 L17.7884391,9.29688496 L17.8008362,9.30007965 L17.8099708,9.30327434 L17.8130701,9.30327434 L17.8161693,9.29066372 L17.8254671,9.25249558 L17.837701,9.19532743 L17.8531973,9.12538053 L17.874729,9.04282301 L17.8962607,8.95404425 L17.924154,8.86509735 L17.9517211,8.77615044 L17.9763521,8.71578761 L18.038011,8.59523009 L18.0688405,8.5410885 L18.0965707,8.49350442 L18.1181024,8.45550442 L18.1335987,8.43314159 L18.1396341,8.42372566 L18.1366979,8.42372566 L18.1243009,8.42053097 L18.1088046,8.41733628 L18.0872729,8.41414159 L18.0657412,8.41414159 L18.0411103,8.4109469 L18.0195786,8.40775221 L17.9980469,8.40775221 L17.9024592,8.41414159 L17.8161693,8.42372566 L17.736078,8.43953097 L17.6621851,8.45869912 L17.5913915,8.48392035 L17.5266333,8.51569912 L17.4680737,8.54747788 L17.4126133,8.58564602 L17.3602521,8.62684071 L17.3109902,8.67459292 L17.2648276,8.72217699 L17.2185018,8.77615044 L17.1723392,8.83012389 L17.1292758,8.89048673 L17.0367874,9.01743363 L17.1477082,8.44272566 L16.2636039,8.44272566 L15.6874681,11.8437257" id="Fill-50" fill="#FFFFFF"></path>
                            <path d="M15.6874681,11.8437257 L16.5715724,11.8437257 L16.8673069,10.0368761 L16.8797039,9.9669292 L16.8950371,9.90034513 L16.9105334,9.83359292 L16.9320651,9.7700354 L16.956696,9.70664602 L16.9875255,9.64628319 L17.0245535,9.58911504 L17.0676168,9.53514159 L17.1168787,9.48738938 L17.1723392,9.43980531 L17.2401966,9.40180531 L17.3140895,9.36683186 L17.4003793,9.33824779 L17.4958039,9.31285841 L17.6005262,9.29688496 L17.7207448,9.28746903 L17.7300426,9.28746903 L17.7422765,9.29066372 L17.7577728,9.29369027 L17.773106,9.29369027 L17.7884391,9.29688496 L17.8008362,9.30007965 L17.8099708,9.30327434 L17.8130701,9.30327434 L17.8161693,9.29066372 L17.8254671,9.25249558 L17.837701,9.19532743 L17.8531973,9.12538053 L17.874729,9.04282301 L17.8962607,8.95404425 L17.924154,8.86509735 L17.9517211,8.77615044 L17.9763521,8.71578761 L18.038011,8.59523009 L18.0688405,8.5410885 L18.0965707,8.49350442 L18.1181024,8.45550442 L18.1335987,8.43314159 L18.1396341,8.42372566 L18.1366979,8.42372566 L18.1243009,8.42053097 L18.1088046,8.41733628 L18.0872729,8.41414159 L18.0657412,8.41414159 L18.0411103,8.4109469 L18.0195786,8.40775221 L17.9980469,8.40775221 L17.9024592,8.41414159 L17.8161693,8.42372566 L17.736078,8.43953097 L17.6621851,8.45869912 L17.5913915,8.48392035 L17.5266333,8.51569912 L17.4680737,8.54747788 L17.4126133,8.58564602 L17.3602521,8.62684071 L17.3109902,8.67459292 L17.2648276,8.72217699 L17.2185018,8.77615044 L17.1723392,8.83012389 L17.1292758,8.89048673 L17.0367874,9.01743363 L17.1477082,8.44272566 L16.2636039,8.44272566 L15.6874681,11.8437257" id="Stroke-51" stroke="#FFFFFF" stroke-width="0.216"></path>
                        </g>
                        <path d="M96.3338858,15.0137191 C95.9849934,14.941652 95.9539123,15.1698129 96.0412754,15.3186067 C96.2353223,15.6666725 96.4990917,15.9328861 96.6920186,15.9858492 C96.8765452,16.0481314 97.095233,15.9047737 96.955788,15.5567079 C96.8955859,15.4057396 96.6894985,15.0902905 96.3338858,15.0137191 L96.3338858,15.0137191 Z M94.5794847,16.0297115 C94.5767351,16.0276903 94.5747091,16.0276903 94.5718148,16.0258038 C94.5661709,16.0258038 94.5619741,16.0237826 94.5583562,16.0224351 C94.5521335,16.0205486 94.5470684,16.0178536 94.5414245,16.0165061 C94.5379514,16.0165061 94.5328863,16.0165061 94.5314392,16.0152934 C94.5224668,16.0125984 94.5139286,16.0105771 94.504088,16.0073431 C94.390197,15.9888825 94.2770296,16.0046482 94.183254,16.0612429 C93.9703777,16.1961269 93.9379614,16.5007951 94.1123435,16.7436134 C94.1936735,16.8534341 94.3024995,16.929837 94.4198636,16.9718787 C94.4220344,16.9718787 94.4240604,16.9718787 94.4291254,16.9745737 C94.4325986,16.9752475 94.4376636,16.9778077 94.4409921,16.9778077 C94.446636,16.9805027 94.4522799,16.9805027 94.4573449,16.9817154 C94.4622652,16.9817154 94.464436,16.9837367 94.4679091,16.9850842 C94.4771709,16.9869707 94.4848408,16.9903394 94.4941026,16.9910131 C94.60727,17.012034 94.7208716,16.9969421 94.8155155,16.9376524 C95.0296942,16.8027683 95.0622552,16.4994476 94.8875837,16.2573031 C94.8069772,16.1461349 94.6977171,16.0685193 94.5794847,16.0297115 L94.5794847,16.0297115 Z M99.8153537,21.3723306 C99.2460293,20.2114315 98.236311,19.3594698 97.1423835,18.7059972 C96.7628867,18.4793795 96.3345454,18.3196665 95.9612335,18.1969815 C95.1026479,17.9183975 94.2716562,17.8540355 93.3028532,17.6879657 C92.5154727,17.5528851 91.8934977,17.2285325 91.2260084,16.7746615 C90.8785461,16.5364428 90.594201,16.2097065 90.3566389,15.8637411 C90.3122348,15.793817 90.0902141,15.52302 90.1125747,15.4298938 C90.1125747,15.4298938 89.957636,16.0506291 90.2643417,16.9221378 C87.4464237,16.7956387 84.9762852,15.2296565 83.8449313,13.3316937 C81.7619016,9.83882556 82.4959971,5.60603318 85.2728413,3.73667569 C88.0488926,1.8665236 92.2821924,3.18570549 94.5482305,6.56113294 C95.9705901,8.67951561 96.3345454,11.1440226 95.7252573,13.1486197 C95.7206583,13.1640348 95.7151077,13.1788142 95.7103502,13.1943882 C94.5065224,12.3166817 93.4065685,12.7645139 93.4065685,12.7645139 C94.6132509,12.639445 95.5673054,13.6016961 95.5673054,13.6016961 C95.707337,13.726606 95.8419767,13.8647061 95.9644052,14.0183803 C95.9916821,14.0557261 96.0202276,14.0937076 96.0473458,14.1340729 C96.3634081,14.5639472 96.5606893,15.0419739 96.6442642,15.526834 C99.0400258,12.4811623 99.4360156,8.26283149 97.3157182,4.98672806 C94.6154711,0.81130523 88.857365,-0.254878516 84.458977,2.60215702 C80.0583688,5.46157633 78.6815234,11.1611858 81.3833564,15.335973 C83.6026116,18.7711537 88.8085205,19.818744 91.7927955,18.872067 C92.9211362,18.5167253 96.784613,18.178388 99.4737591,21.3613652 C99.4737591,21.3613652 99.7060878,21.6275536 99.832481,21.9309289 C99.832481,21.9309289 99.8695902,22.0372453 99.9693409,21.9860736 C99.9956662,21.9720888 100.070043,21.885955 99.8153537,21.3723306 L99.8153537,21.3723306 Z" id="Imported-Layers" fill="#CFCFCF"></path>
                        <g id="Imported-Layers" transform="translate(107.000000, 0.500000)" fill="#CFCFCF">
                            <path d="M8.98614,0.04598 C10.38672,0.04598 11.71314,0.39026 12.89448,1.00149 C13.08006,1.0944 13.2651,1.19662 13.45068,1.30948 L12.62952,2.08525 L11.3958,0.73872 L9.31356,2.69914 L8.07678,1.27433 L4.19796,4.96489 L6.68466,7.85764 L5.70744,8.76489 L8.1567,11.66201 L7.18524,12.56717 L10.68516,16.67934 L12.76272,14.6604 L14.55894,16.82393 C14.20164,17.1171 13.81248,17.39298 13.38372,17.64796 C12.08484,18.42981 10.58364,18.87745 8.98614,18.87745 C4.07322,18.87745 0.06624,14.64729 0.06624,9.462 C0.06624,4.27557 4.07322,0.04598 8.98614,0.04598" id="Fill-1"></path>
                            <path d="M7.36056,8.86673 L9.48168,6.85045 L11.39166,9.08998 L9.27072,11.1055 L7.36056,8.86673" id="Fill-2"></path>
                            <path d="M8.86878,12.73551 L10.99008,10.7198 L12.90024,12.95876 L10.77912,14.97504 L8.86878,12.73551" id="Fill-3"></path>
                            <path d="M5.8428,5.04317 L7.96392,3.02746 L9.87336,5.26642 L7.75224,7.28213 L5.8428,5.04317" id="Fill-4"></path>
                            <path d="M9.73512,3.95808 L11.32596,2.44644 L12.75822,4.12566 L11.16738,5.63787 L9.73512,3.95808" id="Fill-5"></path>
                            <path d="M12.56166,10.88339 L14.15304,9.37118 L15.5853,11.05078 L13.99446,12.56261 L12.56166,10.88339" id="Fill-6"></path>
                            <path d="M13.96116,14.27527 L15.55164,12.76287 L16.98426,14.44209 L15.39342,15.95392 L13.96116,14.27527" id="Fill-7"></path>
                            <path d="M14.60196,6.50142 L15.66252,5.49347 L16.61724,6.61295 L15.55722,7.62071 L14.60196,6.50142" id="Fill-8"></path>
                            <path d="M13.24692,3.17509 L14.30748,2.16733 L15.26238,3.28681 L14.20164,4.29457 L13.24692,3.17509" id="Fill-9"></path>
                            <path d="M15.9579,9.82756 L17.01846,8.81961 L17.97336,9.9389 L16.9128,10.94685 L15.9579,9.82756" id="Fill-10"></path>
                            <path d="M11.20158,7.33514 L12.79224,5.82274 L14.2245,7.50196 L12.6342,9.01379 L11.20158,7.33514" id="Fill-11"></path>
                        </g>
                        <path d="M148.129433,6.8878701 L147.129267,6.8878701 L147.129267,13.0371642 C147.129267,14.1391642 146.650433,14.776223 145.232633,15.0975466 L136.1688,17.6256642 C136.1688,17.6256642 135.397,17.8313113 135.397,17.1411642 C135.397,16.5661348 136.0872,16.4962819 136.193733,16.3934583 L136.1518,16.4091054 L144.422867,13.1673701 C145.099467,12.7929583 145.654233,11.9329289 145.654233,11.2545172 L145.654233,1.5583701 C145.654233,0.0266348028 144.1418,0.551370097 143.812,0.745281862 C143.450467,0.956517156 134.230233,6.05075245 134.230233,6.05075245 C133.553633,6.42516421 133,7.28742892 133,7.96695833 L133,17.6256642 C133,18.3035172 133.982033,19.2071348 134.615,19.2116054 L134.615,19.2121642 L148.129433,19.2121642 C148.939767,19.2143995 149.603333,18.6594877 149.603333,17.9799583 L149.603333,8.12231127 C149.603333,7.44278186 148.939767,6.8878701 148.129433,6.8878701 L148.129433,6.8878701 Z M141.5935,6.14966421 C142.231,5.73166421 142.837333,5.86745833 142.947267,6.45198774 C143.056633,7.03875245 142.6883,7.78310539 142.049667,8.20110539 C141.413867,8.61854657 140.8064,8.4838701 140.696467,7.89822304 C140.588233,7.3131348 140.955433,6.56822304 141.5935,6.14966421 L141.5935,6.14966421 Z" id="Imported-Layers" fill="#CFCFCF"></path>
                    </g>
                </g>
            </g>
        </g>
    </g>
</svg>